<svg xmlns="http://www.w3.org/2000/svg" width="24" height="24" fill="none"><path fill="currentColor" d="M17.93 4H6.07C4.942 4 4 4.941 4 6.07v11.86C4 19.058 4.941 20 6.07 20h11.765c1.13 0 2.07-.847 2.165-2.07V6.07C20 4.942 19.059 4 17.93 4Zm-.095 15.059H6.071c-.565 0-1.13-.565-1.13-1.13V6.071c0-.565.565-1.13 1.13-1.13h11.858c.565 0 1.13.565 1.13 1.13v11.764c-.094.753-.565 1.224-1.224 1.224Z"/><path fill="currentColor" d="M14.165 10.961c-.095-.094-.189-.094-.189-.094-.05 0-.128.094-.188.188l-2.541 3.2-1.788-1.882c-.094-.094-.094-.094-.189-.094-.094 0-.188.094-.282.188l-2.447 2.918v1.412c0 .188.094.376.188.47a.719.719 0 0 0 .47.188h9.695c.094 0 .376 0 .47-.188.095-.094.189-.376.189-.47V13.69l-3.389-2.73ZM9.083 9.645c.94 0 1.6-.753 1.6-1.6 0-.94-.753-1.6-1.6-1.6-.942 0-1.6.753-1.6 1.6-.095.941.658 1.6 1.6 1.6Z"/></svg>