<svg xmlns="http://www.w3.org/2000/svg" width="24" height="24" fill="none"><path fill="#575757" d="M16.8 18.536c0 .195-.097.292-.194.39-.097.098-.29.195-.388.195H5.552c-.194 0-.291-.097-.388-.195-.097-.098-.194-.293-.194-.39V8.78c0-.195.097-.293.194-.39.097-.098.29-.196.388-.196h8.145V7.22H5.552c-.388 0-.776.195-1.067.488C4.194 7.999 4 8.389 4 8.78v9.658c0 .39.194.78.485 1.073.29.293.679.488 1.067.488h10.57c.387 0 .775-.195 1.066-.488a1.62 1.62 0 0 0 .485-1.17v-8.098h-.97v8.293h.097Z"/><path fill="#575757" d="m11.369 11.607-.582 3.122 2.91-1.17 5.042-5.952-2.328-1.95-5.042 5.95ZM20 5.366c0-.39-.195-.78-.582-.976-.194-.097-.291-.195-.485-.292C18.739 4 18.545 4 18.35 4c-.194 0-.388.098-.582.195-.194.098-.29.195-.485.39l-.678.78 2.327 1.952.678-.78c.291-.39.388-.78.388-1.171Z"/></svg>