<svg xmlns="http://www.w3.org/2000/svg" width="24" height="24" fill="none"><path fill="#9C9C9C" d="M17.36 15.592c1.7-1.518 2.64-3.238 2.64-3.238s-3-5.5-8-5.5c-.96.003-1.909.203-2.79.588l.77.771A5.944 5.944 0 0 1 12 7.854c2.12 0 3.88 1.168 5.169 2.457a13.13 13.13 0 0 1 1.66 2.043c-.058.087-.122.183-.195.288-.335.48-.83 1.12-1.465 1.755-.165.165-.337.328-.517.486l.708.709Z"/><path fill="#9C9C9C" d="M15.297 13.53a3.5 3.5 0 0 0-4.474-4.474l.823.823a2.5 2.5 0 0 1 2.83 2.829l.821.822Zm-2.943 1.299.822.822a3.5 3.5 0 0 1-4.474-4.474l.823.823a2.5 2.5 0 0 0 2.83 2.829Z"/><path fill="#9C9C9C" d="M7.35 9.824c-.18.16-.353.322-.518.487a13.133 13.133 0 0 0-1.66 2.043l.195.288c.335.48.83 1.12 1.465 1.755 1.289 1.289 3.049 2.457 5.168 2.457.716 0 1.39-.133 2.02-.36l.77.772a7.03 7.03 0 0 1-2.79.588c-5 0-8-5.5-8-5.5s.939-1.721 2.641-3.238l.708.709.001-.001Zm10.296 8.884-12-12L6.354 6l12 12-.708.708Z"/></svg>