<svg xmlns="http://www.w3.org/2000/svg" width="24" height="24" fill="none"><path fill="#9C9C9C" d="M20 11.5S17 6 12 6s-8 5.5-8 5.5S7 17 12 17s8-5.5 8-5.5Zm-14.827 0c.484-.735 1.04-1.42 1.66-2.043C8.12 8.168 9.88 7 12 7c2.12 0 3.879 1.168 5.168 2.457a13.13 13.13 0 0 1 1.66 2.043c-.058.087-.122.183-.195.288-.335.48-.83 1.12-1.465 1.755C15.879 14.832 14.119 16 12 16c-2.12 0-3.879-1.168-5.168-2.457A13.127 13.127 0 0 1 5.173 11.5Z"/><path fill="#9C9C9C" d="M12 9a2.5 2.5 0 1 0 0 5 2.5 2.5 0 0 0 0-5Zm-3.5 2.5a3.5 3.5 0 1 1 7 0 3.5 3.5 0 0 1-7 0Z"/></svg>