<svg xmlns="http://www.w3.org/2000/svg" width="73" height="16" viewBox="0 0 73 16" fill="none"><path fill="currentColor" d="M.9.896v.787h6.646v.903H.9V4.27H0V0h7.546v.896H.9ZM14.477 2.586a1.303 1.303 0 0 0 .914-.38c.243-.244.379-.574.379-.918A1.294 1.294 0 0 0 14.477 0H8.216v4.277h.9v-1.69h4.133l1.564 1.682h1.227l-1.563-1.683ZM9.115.906h5.352c.051-.001.102.01.149.03a.42.42 0 0 1 .126.088.372.372 0 0 1 .09.423.43.43 0 0 1-.216.216.357.357 0 0 1-.15.03h-5.35V.906ZM23.794 1.3A2.16 2.16 0 0 0 22.66.166a2.129 2.129 0 0 0-.836-.165h-3.256a2.11 2.11 0 0 0-.83.166 2.218 2.218 0 0 0-1.125 1.135c-.112.261-.17.543-.169.827V4.27h.88V3.037h5.73v1.232h.899V2.13a2.073 2.073 0 0 0-.16-.828ZM18.568.907h3.256a1.16 1.16 0 0 1 .48.098 1.232 1.232 0 0 1 .76 1.13l-5.74.004c.001-.164.037-.327.105-.478a1.276 1.276 0 0 1 .667-.662c.15-.063.31-.095.472-.092ZM32.08 0v4.287h-.896V1.615l-2.826 2.189-2.827-2.189v2.672h-.894V0l3.72 2.67L32.08 0ZM33.815 1.527a1.27 1.27 0 0 0-.075.156h6.566v.903H33.74a1.27 1.27 0 0 0 .72.71c.137.051.284.077.431.078h5.415v.895h-5.415a2.15 2.15 0 0 1-1.972-1.303 2.13 2.13 0 0 1 .457-2.34 2.2 2.2 0 0 1 .682-.46c.264-.11.547-.167.833-.166h5.415v.906h-5.415a1.24 1.24 0 0 0-.432.078 1.351 1.351 0 0 0-.644.543ZM48.663 0 46.58 4.287l-1.824-3.084-1.823 3.084L40.852 0h.997l1.152 2.52L44.388 0h.745l1.376 2.52L47.67 0h.994ZM55.934 1.303A2.17 2.17 0 0 0 54.792.166 2.116 2.116 0 0 0 53.96 0H50.7a2.136 2.136 0 0 0-.836.166 2.165 2.165 0 0 0-1.139 1.137 2.127 2.127 0 0 0 .457 2.34 2.15 2.15 0 0 0 1.518.626h3.26c.287.002.57-.055.834-.168.255-.107.487-.263.682-.458.194-.195.35-.425.46-.677a2.16 2.16 0 0 0 0-1.663Zm-1.975 2.07H50.7a1.168 1.168 0 0 1-.48-.098 1.275 1.275 0 0 1-.667-.661 1.204 1.204 0 0 1-.096-.478 1.217 1.217 0 0 1 .366-.876c.115-.113.25-.203.397-.266.151-.066.315-.1.48-.098h3.26c.165-.002.329.032.48.098.148.063.283.153.397.266.113.116.203.252.267.4.067.152.1.316.099.48.001.165-.032.328-.099.479-.064.146-.155.28-.267.395-.112.11-.243.199-.387.262-.154.067-.321.1-.49.098ZM63.036 2.586a1.303 1.303 0 0 0 1.19-.79c.07-.158.105-.33.104-.503a1.298 1.298 0 0 0-.788-1.192A1.267 1.267 0 0 0 63.036 0h-6.263v4.277h.9v-1.69h4.134l1.563 1.682h1.227l-1.56-1.683ZM57.672.906h5.364c.051 0 .1.01.147.03a.431.431 0 0 1 .217.216.354.354 0 0 1 .003.295.481.481 0 0 1-.089.128.388.388 0 0 1-.278.118h-5.364V.906ZM69.08 2.136 73 4.269h-1.859L68.04 2.58h-2.162v1.69h-.89V0h.89v1.69h2.162L71.14 0H73l-3.92 2.136ZM16.207 7.152v1.464h-7.37v7.376h-1.47V8.616H0V7.152h16.207ZM20.707 10.11a2.835 2.835 0 0 0-.3.73h14.469v1.462h-14.47c.066.256.167.502.301.73.343.603.886 1.07 1.536 1.32.333.125.687.19 1.043.189h11.59V16h-11.59a4.34 4.34 0 0 1-1.725-.35 4.428 4.428 0 0 1-2.712-4.072c0-.59.118-1.175.348-1.719a4.437 4.437 0 0 1 2.364-2.352 4.338 4.338 0 0 1 1.725-.347h11.59v1.444h-11.59a2.894 2.894 0 0 0-1.043.188 3.011 3.011 0 0 0-1.536 1.319ZM53.674 9.847a4.502 4.502 0 0 0-.944-1.394 4.43 4.43 0 0 0-1.405-.949 4.359 4.359 0 0 0-1.727-.347H42.47a4.308 4.308 0 0 0-1.72.347 4.447 4.447 0 0 0-2.357 2.348 4.262 4.262 0 0 0-.346 1.713V16h1.455v-2.712h13.062V16h1.46v-4.44a4.262 4.262 0 0 0-.35-1.713ZM42.471 8.604h7.127c.397-.002.791.078 1.157.234a3.011 3.011 0 0 1 1.58 1.582c.155.36.233.748.23 1.14v.276H39.503v-.276c0-.392.08-.78.235-1.14a3.07 3.07 0 0 1 1.578-1.582 2.89 2.89 0 0 1 1.155-.234ZM72.987 7.152v8.84h-1.444v-6.12L65.09 14.86l-6.44-4.987v6.119h-1.448v-8.84l7.888 5.876 7.897-5.877Z"/></svg>