<svg xmlns="http://www.w3.org/2000/svg" width="130" height="130" fill="none"><g opacity=".1"><path fill="#575757" d="M130 65c0 35.899-29.101 65-65 65-35.898 0-65-29.101-65-65C0 29.102 29.102 0 65 0c35.899 0 65 29.102 65 65Z"/><path fill="#DEDEDE" d="m15.287 106.879 17.056-20.345c.603-1.045 1.426-1.266 2.25-1.487.823-.22 1.647-.441 2.691.163l19.585 20.382 27.74-34.83c.602-1.046 1.426-1.266 2.25-1.487 0 0 .823-.22 1.867.383l32.372 28.196C109.809 117.087 88.913 130 65 130c-19.944 0-37.79-8.982-49.713-23.121ZM52.45 52.865c3.455-3.577 5.865-7.758 5.363-12.926-.502-5.168-1.827-10.115-5.403-13.576-3.575-3.461-7.753-5.877-12.915-5.377-5.384-.325-10.104 1.823-13.559 5.4-3.455 3.577-5.865 7.758-5.363 12.927-.322 5.388 1.828 10.115 5.403 13.576 3.575 3.46 7.753 5.876 12.916 5.377 5.383.325 10.103-1.824 13.558-5.4Z"/></g></svg>