<svg xmlns="http://www.w3.org/2000/svg" width="60" height="60" viewBox="0 0 60 60" fill="none"><g opacity=".1"><path fill="#575757" d="M60 30c0 16.569-13.431 30-30 30C13.431 60 0 46.569 0 30 0 13.431 13.431 0 30 0c16.569 0 30 13.431 30 30Z"/><path fill="#DEDEDE" d="m7.056 49.329 7.872-9.39c.278-.483.658-.585 1.038-.686.38-.102.76-.204 1.242.075l9.039 9.407L39.05 32.659c.278-.482.658-.584 1.038-.686 0 0 .38-.102.863.177l14.94 13.014C50.681 54.04 41.037 60 30 60c-9.205 0-17.441-4.145-22.944-10.671ZM24.208 24.4c1.594-1.652 2.707-3.581 2.475-5.966-.232-2.386-.843-4.67-2.494-6.267-1.65-1.597-3.578-2.712-5.96-2.481-2.485-.15-4.664.841-6.258 2.492-1.595 1.651-2.708 3.58-2.476 5.966-.148 2.487.844 4.669 2.494 6.266 1.65 1.598 3.578 2.712 5.961 2.482 2.485.15 4.663-.842 6.258-2.493Z"/></g></svg>