<svg xmlns="http://www.w3.org/2000/svg" width="24" height="24" fill="none"><path fill="#575757" d="M19.53 6.918h-3.954V5.412c0-.847-.658-1.412-1.505-1.412h-3.765c-.47 0-.847.094-1.13.376-.282.283-.47.565-.47 1.036v1.412H4.47c-.283 0-.471.188-.471.47s.188.565.47.565h1.977v9.976c0 .565.188 1.13.565 1.506.376.377.847.659 1.412.659h7.435c.565 0 1.035-.282 1.412-.659.376-.376.564-.941.564-1.506V7.86h1.694c.283 0 .471-.188.471-.47 0-.283-.188-.471-.47-.471ZM9.646 5.506c0-.188.094-.377.188-.47.094-.095.188-.095.377-.095h3.859c.282 0 .564.188.564.47v1.413H9.647V5.506Zm7.153 12.33c0 .282-.094.658-.282.846-.189.189-.47.377-.66.377H8.425c-.283 0-.471-.094-.66-.377-.188-.188-.282-.564-.282-.847V7.86h9.412v9.976H16.8Z"/></svg>